<svg xmlns="http://www.w3.org/2000/svg" xmlns:xlink="http://www.w3.org/1999/xlink" width="500" zoomAndPan="magnify" viewBox="0 0 375 374.999991" height="500" preserveAspectRatio="xMidYMid meet" version="1.0"><defs><clipPath id="3014647076"><path d="M 159.191406 338.257812 L 184.496094 338.257812 L 184.496094 368.292969 L 159.191406 368.292969 Z M 159.191406 338.257812 " clip-rule="nonzero"/></clipPath><clipPath id="db51812088"><path d="M 0.257812 6.816406 L 374.726562 6.816406 L 374.726562 358 L 0.257812 358 Z M 0.257812 6.816406 " clip-rule="nonzero"/></clipPath></defs><path fill="#3c956a" d="M 162.65625 338.808594 C 154.984375 337.785156 148.027344 340.710938 140.589844 342.054688 C 136.164062 342.925781 131.578125 343.003906 127.78125 340.074219 C 124.304688 337.386719 122.484375 333.113281 119.957031 329.636719 C 115.527344 323.464844 109.125 319.035156 101.769531 316.980469 C 92.59375 314.523438 81.921875 317.847656 73.460938 312.785156 C 65 307.722656 68.320312 296.488281 63.65625 288.972656 C 59.703125 282.570312 53.058594 278.457031 46.8125 274.578125 C 39.855469 270.226562 31.394531 264.929688 29.339844 256.382812 C 27.203125 247.527344 33.292969 239.21875 33.53125 230.4375 C 33.765625 223.480469 29.8125 218.019531 25.464844 213.035156 C 20.5625 207.5 14.3125 201.644531 15.261719 193.496094 C 16.214844 185.347656 22.378906 178.863281 25.859375 171.824219 C 29.339844 164.78125 29.65625 157.742188 28.46875 150.070312 C 27.125 141.527344 23.882812 132.035156 27.125 123.570312 C 30.523438 114.632812 39.933594 110.441406 47.210938 105.140625 C 52.980469 100.949219 58.914062 95.332031 60.019531 87.816406 C 60.652344 83.386719 58.988281 78.957031 60.019531 74.527344 C 60.890625 70.652344 63.417969 67.410156 66.5 64.957031 C 81.367188 52.773438 103.984375 59.417969 117.898438 45.417969 C 123.910156 39.40625 127.148438 31.179688 133.476562 25.484375 C 142.570312 17.417969 154.984375 20.65625 165.421875 23.746094 C 167.398438 24.296875 168.191406 21.292969 166.289062 20.65625 C 157.515625 18.046875 147.550781 15.359375 138.613281 18.679688 C 131.5 21.371094 127.070312 27.460938 122.960938 33.550781 C 117.503906 41.621094 112.046875 47.710938 102.402344 50.558594 C 93.863281 53.089844 84.769531 53.171875 76.308594 56.097656 C 69.664062 58.390625 62.945312 62.265625 59.148438 68.359375 C 57.410156 71.125 56.460938 74.371094 56.378906 77.691406 C 56.304688 83.070312 57.804688 87.421875 55.035156 92.484375 C 50.292969 101.105469 40.566406 105.058594 33.214844 110.992188 C 26.726562 116.132812 22.695312 122.78125 22.617188 131.164062 C 22.460938 140.183594 25.9375 148.804688 26.015625 157.742188 C 26.097656 167.15625 20.640625 174.039062 16.214844 181.789062 C 12.734375 187.960938 10.441406 194.84375 13.207031 201.804688 C 15.976562 208.765625 22.144531 213.273438 26.414062 219.207031 C 28.867188 222.527344 30.367188 226.167969 30.285156 230.359375 C 30.128906 235.578125 27.835938 240.5625 26.570312 245.546875 C 24.675781 253.300781 26.015625 260.261719 31.238281 266.351562 C 36.691406 272.601562 44.203125 276.242188 50.925781 280.90625 C 54.722656 283.515625 58.355469 286.523438 60.808594 290.398438 C 63.417969 294.511719 63.496094 299.101562 64.289062 303.769531 C 65.867188 313.496094 73.699219 317.6875 82.949219 318.480469 C 88.960938 318.957031 94.96875 318.242188 100.820312 319.824219 C 106.355469 321.328125 111.335938 324.414062 115.132812 328.605469 C 120.984375 335.09375 123.515625 344.425781 133.476562 345.457031 C 143.125 346.484375 152.058594 340.3125 161.707031 341.65625 C 163.839844 342.132812 164.707031 339.046875 162.65625 338.808594 " fill-opacity="1" fill-rule="nonzero"/><g clip-path="url(#3014647076)"><path fill="#3c956a" d="M 173.488281 358.746094 C 172.300781 352.496094 163.683594 350.992188 161.230469 357.320312 C 158.226562 365.074219 169.535156 369.105469 175.304688 368.15625 C 182.894531 366.890625 186.296875 358.585938 183.527344 351.785156 C 180.050781 343.003906 170.242188 340.15625 161.785156 338.808594 C 159.808594 338.492188 158.9375 341.578125 160.914062 341.894531 C 168.824219 343.082031 180.523438 346.089844 181.238281 355.898438 C 181.632812 361.433594 177.679688 365.625 172.0625 365.074219 C 169.769531 364.835938 166.921875 364.121094 165.34375 362.382812 C 164.078125 361.039062 163.445312 358.585938 164.945312 357.242188 C 167.320312 355.023438 170.007812 357.320312 170.40625 359.613281 C 170.800781 361.589844 173.882812 360.722656 173.488281 358.746094 " fill-opacity="1" fill-rule="nonzero"/></g><path fill="#3c956a" d="M 193.808594 355.421875 C 196.417969 353.046875 200.609375 357.242188 198.949219 360.007812 C 197.839844 361.910156 195.152344 362.304688 193.175781 361.828125 C 186.296875 360.167969 188.589844 351.152344 192.308594 347.589844 C 200.453125 339.679688 215.550781 339.523438 225.988281 341.261719 C 235.476562 342.84375 245.128906 346.007812 254.773438 343.238281 C 263.3125 340.785156 267.503906 334.144531 271.0625 326.546875 C 272.960938 322.59375 274.855469 318.480469 278.019531 315.398438 C 281.421875 312.152344 285.925781 310.492188 290.355469 309.226562 C 298.5 306.933594 306.644531 305.429688 313.363281 299.890625 C 319.769531 294.59375 324.039062 287.078125 325.226562 278.851562 C 325.9375 273.789062 325.386719 268.644531 325.78125 263.503906 C 326.253906 257.730469 328.230469 252.113281 331.632812 247.367188 C 340.566406 234.789062 361.679688 229.808594 360.253906 211.296875 C 359.542969 201.960938 354.007812 193.972656 351.714844 185.113281 C 348.871094 173.878906 352.503906 162.488281 353.691406 151.335938 C 354.640625 142.320312 354.007812 132.511719 348.316406 125.074219 C 343.175781 118.351562 335.109375 114.871094 329.417969 108.699219 C 322.222656 100.949219 323.410156 89.875 319.691406 80.539062 C 316.6875 72.945312 311.78125 66.378906 305.378906 61.394531 C 296.523438 54.515625 286.007812 52.851562 275.570312 49.453125 C 264.417969 45.734375 257.144531 37.589844 248.449219 30.152344 C 232.710938 16.625 210.652344 12.511719 191.199219 20.261719 C 189.300781 20.976562 190.171875 24.058594 192.070312 23.347656 C 202.269531 19.3125 213.417969 18.441406 224.09375 20.976562 C 234.769531 23.507812 243.152344 29.28125 251.058594 36.636719 C 258.332031 43.359375 265.289062 49.371094 274.855469 52.539062 C 285.214844 55.9375 295.890625 57.441406 304.507812 64.640625 C 312.496094 71.285156 317.316406 80.304688 319.21875 90.425781 C 320.164062 95.410156 320.800781 100.476562 323.089844 105.140625 C 325.066406 109.175781 328.3125 112.339844 331.789062 115.109375 C 340.015625 121.59375 348.316406 126.578125 350.292969 137.652344 C 352.347656 148.886719 348.632812 160.117188 347.683594 171.273438 C 347.207031 176.175781 347.527344 181.160156 348.632812 185.984375 C 349.976562 191.441406 352.585938 196.425781 354.480469 201.644531 C 356.382812 206.707031 357.960938 212.167969 356.457031 217.546875 C 355.273438 221.898438 352.269531 225.375 348.945312 228.304688 C 342.542969 233.921875 334.792969 237.875 329.574219 244.835938 C 326.648438 248.710938 324.515625 253.144531 323.410156 257.890625 C 321.984375 263.742188 322.695312 269.59375 322.300781 275.527344 C 321.746094 286.046875 315.898438 295.464844 306.722656 300.683594 C 298.578125 305.191406 288.773438 305.191406 280.628906 309.703125 C 272.484375 314.210938 270.035156 322.515625 265.761719 330.1875 C 259.59375 341.34375 248.367188 342.367188 236.902344 340.3125 C 224.25 338.019531 212.390625 335.804688 199.894531 339.996094 C 191.988281 342.605469 183.214844 349.488281 186.136719 358.902344 C 188.117188 365.230469 197.917969 368.078125 201.714844 361.75 C 205.273438 355.816406 196.8125 348.695312 191.59375 353.285156 C 190.09375 354.550781 192.308594 356.769531 193.808594 355.421875 " fill-opacity="1" fill-rule="nonzero"/><path fill="#3c956a" d="M 164.789062 21.84375 C 153.007812 34.1875 134.03125 33.078125 118.453125 34.976562 C 111.101562 35.84375 103.589844 37.191406 96.945312 40.671875 C 89.511719 44.546875 84.769531 50.957031 81.289062 58.390625 C 77.019531 67.566406 73.9375 77.296875 65.078125 82.992188 C 56.773438 88.292969 46.8125 90.03125 38.75 95.886719 C 31.867188 100.871094 27.597656 107.75 28.703125 116.453125 C 29.339844 121.59375 31.472656 126.578125 31.394531 131.878906 C 31.316406 138.125 28.230469 143.742188 24.988281 148.804688 C 19.691406 157.109375 12.65625 165.96875 14 176.492188 C 14.472656 180.601562 16.449219 184.085938 18.742188 187.40625 C 22.222656 192.550781 25.308594 197.535156 25.78125 203.9375 C 26.570312 214.855469 18.425781 222.527344 17.320312 232.890625 C 16.371094 241.832031 22.855469 248.632812 29.972656 252.984375 C 38.355469 258.125 48 261.921875 47.605469 273.472656 C 47.367188 281.699219 43.414062 290.398438 46.890625 298.464844 C 49.820312 305.351562 57.011719 308.277344 64.050781 308.910156 C 68.007812 309.226562 72.035156 309.066406 75.992188 308.433594 C 78.914062 308.039062 82.160156 306.933594 85.007812 308.433594 C 87.535156 309.777344 88.878906 312.546875 89.75 315.078125 C 91.488281 320.21875 91.015625 325.835938 93.542969 330.742188 C 95.363281 334.222656 98.605469 336.832031 102.402344 337.859375 C 111.8125 340.628906 120.902344 335.882812 130.15625 335.25 C 134.660156 334.933594 140.121094 335.171875 143.597656 338.574219 C 147.078125 341.972656 146.601562 347.671875 151.265625 350.277344 C 155.21875 352.574219 160.359375 352.097656 164.632812 351.546875 C 170.480469 350.753906 176.097656 349.09375 181.394531 346.484375 C 183.214844 345.613281 181.632812 342.925781 179.8125 343.714844 C 174.59375 346.246094 168.980469 347.828125 163.207031 348.460938 C 160.597656 348.859375 157.988281 348.859375 155.378906 348.382812 C 151.660156 347.589844 150.476562 345.457031 149.210938 342.132812 C 146.601562 335.410156 141.304688 332.324219 134.1875 331.929688 C 125.886719 331.453125 118.21875 335.015625 109.992188 335.410156 C 105.722656 335.566406 100.976562 335.015625 97.894531 331.613281 C 94.101562 327.5 94.414062 321.328125 93.230469 316.265625 C 91.410156 308.515625 86.507812 303.53125 78.285156 304.792969 C 70.457031 305.980469 60.570312 307.40625 53.691406 302.265625 C 45.628906 296.332031 49.1875 285.652344 50.292969 277.425781 C 51.402344 269.199219 49.660156 262.476562 43.019531 257.257812 C 35.902344 251.71875 25.464844 248.949219 21.429688 240.089844 C 16.925781 230.042969 26.808594 220.394531 28.46875 210.742188 C 30.050781 201.171875 26.570312 193.496094 21.351562 185.824219 C 18.109375 181.078125 16.132812 176.253906 17.238281 170.320312 C 18.347656 164.625 21.511719 159.5625 24.675781 154.738281 C 29.65625 147.222656 35.109375 139.234375 34.320312 129.820312 C 33.925781 125.074219 32.1875 120.566406 31.632812 115.820312 C 31 110.441406 32.976562 104.984375 36.929688 101.34375 C 43.890625 94.460938 53.613281 92.402344 62.152344 88.214844 C 70.378906 84.179688 75.675781 78.007812 79.546875 69.859375 C 84.054688 60.605469 87.21875 50.558594 96.152344 44.785156 C 103.351562 40.195312 112.125 38.773438 120.507812 37.824219 C 136.480469 36.082031 155.144531 36.558594 167.082031 23.980469 C 168.425781 22.636719 166.214844 20.34375 164.789062 21.84375 " fill-opacity="1" fill-rule="nonzero"/><path fill="#3c956a" d="M 188.511719 344.03125 C 200.609375 341.105469 211.125 349.882812 222.59375 352.335938 C 230.972656 354.078125 238.878906 352.335938 244.335938 345.457031 C 250.03125 338.257812 252.640625 328.605469 262.363281 325.835938 C 271.140625 323.382812 280.550781 325.835938 289.484375 323.941406 C 308.78125 319.90625 310.042969 297.992188 314.867188 282.644531 C 316.371094 277.742188 318.503906 272.996094 322.0625 269.199219 C 325.621094 265.402344 330.050781 262.949219 334.242188 260.101562 C 341.121094 255.355469 345.945312 249.660156 347.050781 241.199219 C 348.234375 232.179688 345.945312 223.160156 346.65625 214.144531 C 347.445312 203.703125 354.5625 197.769531 359.621094 189.386719 C 364.050781 181.949219 363.65625 174.039062 359.304688 166.601562 C 354.007812 157.585938 344.203125 151.496094 340.722656 141.371094 C 337.402344 131.957031 340.566406 121.753906 340.566406 112.101562 C 340.566406 104.035156 337.957031 96.675781 331.789062 91.296875 C 320.640625 81.566406 303.875 80.617188 293.675781 69.542969 C 286.164062 61.394531 286.480469 49.292969 281.261719 39.800781 C 276.992188 32.050781 269.402344 27.066406 261.175781 24.457031 C 238.246094 17.179688 214.210938 28.015625 191.359375 21.210938 C 189.382812 20.65625 188.589844 23.664062 190.488281 24.296875 C 210.730469 30.308594 231.289062 22.636719 251.6875 25.5625 C 260.226562 26.828125 269.007812 29.835938 275.015625 36.402344 C 281.578125 43.519531 282.292969 53.410156 285.6875 62.109375 C 291.460938 76.820312 305.773438 80.933594 318.898438 87.105469 C 325.542969 90.191406 332.265625 94.148438 335.425781 101.105469 C 339.457031 110.042969 336.613281 120.328125 336.21875 129.664062 C 335.824219 138.996094 338.746094 146.511719 344.679688 153.632812 C 350.847656 160.988281 360.410156 168.660156 359.859375 179.257812 C 359.386719 188.277344 351.085938 194.445312 346.96875 201.882812 C 342.859375 209.320312 343.175781 217.78125 343.808594 226.011719 C 344.441406 235.183594 345.46875 245.390625 338.507812 252.585938 C 332.421875 258.914062 323.722656 261.84375 318.1875 268.882812 C 307.117188 282.882812 311.78125 306.378906 296.601562 317.53125 C 287.984375 323.859375 276.4375 320.777344 266.476562 321.882812 C 257.382812 322.910156 251.6875 327.734375 247.105469 335.328125 C 244.496094 339.523438 242.199219 344.347656 238.011719 347.277344 C 232.949219 350.753906 226.546875 350.203125 220.929688 348.621094 C 209.859375 345.53125 199.820312 338.019531 187.800781 340.949219 C 185.664062 341.5 186.453125 344.507812 188.511719 344.03125 " fill-opacity="1" fill-rule="nonzero"/><path fill="#ea226d" d="M 45.707031 271.257812 C 44.996094 270.78125 44.203125 270.546875 43.332031 270.386719 C 44.046875 270.625 44.679688 270.941406 45.308594 271.414062 C 45.867188 271.730469 46.339844 272.207031 46.8125 272.601562 C 46.734375 272.757812 46.734375 272.839844 46.65625 272.996094 C 46.578125 273.390625 46.65625 273.710938 46.8125 274.105469 C 47.050781 274.578125 47.523438 274.5 47.917969 275.132812 C 48.238281 275.527344 48.394531 276.003906 48.394531 276.554688 C 48.554688 278.457031 51.164062 282.410156 52.820312 285.019531 C 55.355469 288.898438 55.433594 288.261719 56.378906 290.160156 C 57.011719 291.429688 57.726562 293.324219 58.515625 293.324219 C 58.675781 293.324219 58.914062 293.246094 58.988281 293.089844 C 59.386719 292.457031 58.28125 290.875 57.566406 289.6875 C 56.855469 288.5 57.332031 289.054688 55.117188 283.832031 C 52.191406 276.953125 51.242188 275.921875 50.609375 275.449219 C 50.132812 275.210938 49.738281 274.816406 49.5 274.261719 C 49.261719 273.628906 49.5 273.152344 49.261719 272.679688 C 49.027344 272.285156 48.632812 272.046875 48.15625 271.96875 C 48 271.652344 47.84375 271.257812 47.761719 270.941406 C 47.605469 270.386719 47.605469 269.832031 47.605469 269.199219 C 47.605469 268.726562 47.605469 268.25 47.683594 267.777344 C 47.449219 268.566406 47.367188 269.359375 47.449219 270.148438 C 47.523438 270.78125 47.683594 271.414062 47.84375 271.96875 L 47.285156 272.207031 C 46.65625 271.890625 46.179688 271.570312 45.707031 271.257812 Z M 51.875 279.085938 C 63.417969 280.988281 72.273438 279.644531 73.777344 275.132812 C 74.410156 273.472656 74.410156 271.652344 73.777344 269.988281 C 72.75 267.617188 70.773438 267.855469 69.191406 265.480469 C 67.054688 262.316406 69.425781 259.785156 67.53125 256.148438 C 66.1875 253.617188 63.65625 251.875 60.730469 251.5625 C 57.644531 251.402344 55.75 253.933594 53.851562 256.464844 C 50.054688 261.605469 49.582031 267.777344 49.34375 270.703125 C 49.261719 272.046875 49.261719 273.390625 49.261719 274.734375 Z M 48.078125 275.132812 C 46.972656 274.421875 45.867188 273.710938 44.679688 273.152344 C 42.148438 271.890625 36.613281 269.199219 30.367188 269.914062 C 27.285156 270.308594 24.199219 270.703125 22.773438 273.472656 C 21.589844 276.160156 21.75 279.246094 23.25 281.777344 C 25.308594 285.257812 28.628906 284.464844 30.285156 287.949219 C 31.472656 290.480469 30.285156 292.0625 31.789062 294.277344 C 32.894531 295.699219 34.402344 296.570312 36.140625 296.882812 C 40.726562 297.914062 46.261719 290.71875 50.53125 279.5625 Z M 56.617188 288.738281 C 59.308594 291.191406 62.234375 293.246094 65.472656 294.90625 C 68.402344 296.410156 71.167969 297.757812 72.589844 296.488281 C 73.542969 295.699219 73.777344 293.800781 73.699219 292.613281 C 73.542969 291.191406 72.984375 290.71875 72.90625 288.972656 C 72.90625 288.027344 72.984375 287.15625 73.066406 286.207031 C 73.066406 284.390625 72.511719 282.644531 71.5625 281.144531 C 69.746094 278.296875 65.949219 278.0625 61.996094 277.742188 C 58.515625 277.503906 54.960938 277.824219 51.558594 278.691406 Z M 50.449219 279.5625 C 47.761719 281.777344 45.390625 284.464844 43.570312 287.472656 C 41.515625 290.875 39.539062 294.117188 40.726562 297.28125 C 41.4375 298.941406 42.542969 300.367188 43.964844 301.394531 C 44.757812 301.867188 45.546875 302.34375 46.339844 302.898438 C 47.761719 304.085938 47.761719 304.792969 48.867188 305.667969 C 49.820312 306.457031 51.476562 307.328125 52.664062 307.089844 C 53.140625 307.011719 54.5625 306.457031 55.511719 300.367188 C 56.066406 296.648438 56.144531 292.851562 55.828125 289.054688 Z M 308.148438 71.761719 C 307.355469 71.441406 306.566406 71.285156 305.773438 71.363281 C 306.484375 71.441406 307.199219 71.679688 307.828125 71.917969 C 308.386719 72.15625 308.9375 72.46875 309.410156 72.867188 C 309.410156 73.023438 309.332031 73.105469 309.332031 73.261719 C 309.332031 73.578125 309.410156 73.976562 309.648438 74.210938 C 309.964844 74.605469 310.363281 74.527344 310.835938 75 C 311.152344 75.320312 311.386719 75.792969 311.46875 76.269531 C 311.945312 78.007812 315.027344 81.253906 317.003906 83.386719 C 320.007812 86.632812 320.007812 86 321.195312 87.582031 C 321.984375 88.6875 322.933594 90.269531 323.644531 90.191406 C 323.804688 90.191406 323.960938 90.03125 324.039062 89.875 C 324.277344 89.238281 323.011719 87.894531 322.140625 86.945312 C 321.269531 86 321.828125 86.394531 318.898438 81.886719 C 315.027344 75.953125 313.921875 75.082031 313.285156 74.84375 C 312.8125 74.6875 312.339844 74.371094 312.019531 73.976562 C 311.625 73.417969 311.863281 72.945312 311.546875 72.550781 C 311.230469 72.234375 310.835938 72.074219 310.363281 72.074219 C 310.125 71.761719 309.964844 71.523438 309.804688 71.207031 C 309.570312 70.730469 309.410156 70.175781 309.332031 69.625 C 309.253906 69.148438 309.175781 68.753906 309.175781 68.277344 C 309.09375 69.070312 309.175781 69.859375 309.410156 70.574219 C 309.570312 71.125 309.804688 71.679688 310.125 72.234375 L 309.648438 72.550781 C 309.09375 72.234375 308.621094 71.996094 308.148438 71.761719 Z M 315.183594 78.089844 C 326.253906 77.929688 334.316406 75.238281 334.953125 70.730469 C 335.269531 69.070312 334.953125 67.328125 334.082031 65.90625 C 332.660156 63.847656 330.921875 64.402344 329.019531 62.503906 C 326.492188 59.894531 328.3125 57.125 325.859375 54.121094 C 324.121094 51.984375 321.507812 50.796875 318.742188 50.957031 C 315.816406 51.351562 314.472656 53.960938 313.128906 56.648438 C 310.4375 62.109375 310.992188 67.960938 311.308594 70.652344 C 311.46875 71.917969 311.625 73.183594 311.945312 74.449219 Z M 310.992188 75 C 309.804688 74.527344 308.621094 74.050781 307.433594 73.738281 C 304.828125 72.945312 299.292969 71.363281 293.519531 73.105469 C 290.671875 73.976562 287.902344 74.84375 287.035156 77.691406 C 286.402344 80.378906 287.035156 83.230469 288.851562 85.363281 C 291.382812 88.292969 294.308594 87.027344 296.445312 89.953125 C 298.027344 92.089844 297.15625 93.828125 298.898438 95.566406 C 300.160156 96.675781 301.742188 97.3125 303.402344 97.3125 C 307.828125 97.46875 311.863281 89.796875 313.921875 78.722656 Z M 321.195312 86.3125 C 324.121094 88.132812 327.203125 89.558594 330.445312 90.585938 C 333.371094 91.457031 336.21875 92.328125 337.324219 90.902344 C 338.113281 89.953125 338.039062 88.214844 337.71875 87.105469 C 337.402344 85.761719 336.769531 85.445312 336.375 83.78125 C 336.21875 82.910156 336.136719 82.042969 336.058594 81.171875 C 335.742188 79.511719 334.953125 77.929688 333.847656 76.664062 C 331.710938 74.289062 328.074219 74.6875 324.277344 75.082031 C 320.957031 75.398438 317.714844 76.347656 314.628906 77.691406 Z M 313.996094 78.722656 C 311.863281 81.253906 310.125 84.179688 308.859375 87.261719 C 307.515625 90.820312 306.171875 94.222656 307.828125 96.914062 C 308.78125 98.335938 310.042969 99.523438 311.546875 100.238281 C 312.414062 100.476562 313.207031 100.871094 313.996094 101.265625 C 315.5 102.132812 315.660156 102.765625 316.765625 103.476562 C 317.792969 104.113281 319.457031 104.585938 320.5625 104.113281 C 320.957031 103.953125 322.222656 103.164062 322.140625 97.386719 C 322.0625 93.828125 321.507812 90.269531 320.5625 86.789062 Z M 81.683594 48.582031 C 81.921875 47.949219 81.921875 47.238281 81.84375 46.523438 C 81.761719 47.15625 81.683594 47.710938 81.527344 48.34375 C 81.367188 48.820312 81.128906 49.292969 80.890625 49.769531 C 80.816406 49.769531 80.65625 49.769531 80.578125 49.769531 C 80.261719 49.769531 80.023438 49.925781 79.785156 50.082031 C 79.472656 50.402344 79.628906 50.71875 79.234375 51.191406 C 78.996094 51.507812 78.601562 51.746094 78.207031 51.828125 C 76.703125 52.378906 74.171875 55.148438 72.511719 56.96875 C 69.984375 59.738281 70.535156 59.65625 69.191406 60.761719 C 68.320312 61.554688 66.976562 62.425781 67.136719 63.058594 C 67.136719 63.214844 67.292969 63.296875 67.371094 63.375 C 67.925781 63.53125 68.953125 62.34375 69.746094 61.554688 C 70.535156 60.761719 70.21875 61.238281 73.777344 58.46875 C 78.601562 54.753906 79.152344 53.804688 79.390625 53.246094 C 79.472656 52.851562 79.707031 52.457031 80.023438 52.140625 C 80.496094 51.828125 80.890625 51.984375 81.210938 51.589844 C 81.449219 51.269531 81.605469 50.957031 81.527344 50.558594 C 81.761719 50.320312 82 50.164062 82.238281 50.007812 C 82.632812 49.769531 83.105469 49.609375 83.582031 49.53125 C 84.292969 49.371094 84.6875 49.292969 84.6875 49.292969 C 84.054688 49.292969 83.34375 49.371094 82.792969 49.609375 C 82.316406 49.769531 81.84375 50.007812 81.449219 50.320312 L 81.128906 49.925781 C 81.367188 49.453125 81.605469 49.058594 81.683594 48.582031 Z M 76.78125 54.992188 C 77.652344 64.402344 80.496094 71.046875 84.292969 71.285156 C 85.71875 71.441406 87.140625 71.046875 88.328125 70.253906 C 89.984375 68.910156 89.433594 67.410156 90.9375 65.746094 C 92.992188 63.453125 95.445312 64.796875 97.894531 62.503906 C 99.636719 60.921875 100.425781 58.550781 100.109375 56.253906 C 99.636719 53.804688 97.261719 52.851562 94.890625 51.902344 C 90.144531 50.007812 85.164062 50.875 82.867188 51.269531 C 81.84375 51.507812 80.734375 51.746094 79.707031 52.0625 Z M 79.152344 51.191406 C 79.472656 50.164062 79.785156 49.136719 80.023438 48.105469 C 80.496094 45.894531 81.527344 40.988281 79.628906 36.242188 C 78.679688 33.867188 77.808594 31.574219 75.28125 31.023438 C 72.984375 30.625 70.613281 31.417969 68.875 33.078125 C 66.582031 35.449219 67.84375 37.824219 65.472656 39.800781 C 63.734375 41.226562 62.234375 40.671875 60.890625 42.253906 C 60.019531 43.359375 59.625 44.785156 59.703125 46.207031 C 59.859375 50.007812 66.660156 52.933594 76.148438 53.960938 Z M 70.21875 60.605469 C 68.875 63.214844 67.84375 65.90625 67.214844 68.753906 C 66.660156 71.285156 66.105469 73.738281 67.449219 74.605469 C 68.320312 75.160156 69.746094 75 70.691406 74.6875 C 71.800781 74.289062 72.035156 73.738281 73.378906 73.261719 C 74.09375 73.105469 74.804688 72.945312 75.59375 72.867188 C 77.019531 72.46875 78.285156 71.761719 79.234375 70.652344 C 81.054688 68.671875 80.496094 65.667969 79.945312 62.425781 C 79.472656 59.65625 78.441406 56.886719 77.097656 54.433594 Z M 76.148438 53.960938 C 73.855469 52.300781 71.246094 51.035156 68.558594 50.164062 C 65.472656 49.214844 62.546875 48.34375 60.332031 49.925781 C 59.148438 50.796875 58.28125 51.984375 57.726562 53.328125 C 57.566406 54.039062 57.332031 54.753906 57.09375 55.464844 C 56.460938 56.808594 55.90625 56.96875 55.433594 57.992188 C 54.878906 59.023438 54.640625 60.367188 55.117188 61.238281 C 55.273438 61.554688 55.984375 62.582031 60.890625 62.109375 C 63.890625 61.792969 66.898438 61.082031 69.746094 60.050781 Z M 275.488281 320.144531 C 275.570312 319.507812 275.488281 318.796875 275.332031 318.164062 C 275.410156 318.71875 275.332031 319.351562 275.332031 319.90625 C 275.253906 320.378906 275.09375 320.851562 274.9375 321.328125 C 274.855469 321.328125 274.699219 321.328125 274.617188 321.328125 C 274.304688 321.40625 274.066406 321.566406 273.910156 321.726562 C 273.671875 322.039062 273.828125 322.359375 273.59375 322.832031 C 273.433594 323.148438 273.117188 323.464844 272.800781 323.621094 C 271.535156 324.335938 269.558594 327.339844 268.292969 329.398438 C 266.398438 332.402344 266.871094 332.246094 265.84375 333.511719 C 265.128906 334.382812 264.105469 335.410156 264.261719 335.964844 C 264.339844 336.121094 264.417969 336.203125 264.578125 336.203125 C 265.128906 336.277344 265.921875 335.015625 266.476562 334.144531 C 267.03125 333.273438 266.871094 333.828125 269.796875 330.582031 C 273.671875 326.390625 274.144531 325.363281 274.222656 324.808594 C 274.222656 324.414062 274.382812 324.015625 274.699219 323.621094 C 275.09375 323.226562 275.488281 323.308594 275.726562 322.910156 C 275.886719 322.59375 275.964844 322.277344 275.886719 321.882812 C 276.359375 321.328125 276.914062 320.851562 277.625 320.617188 C 278.257812 320.300781 278.652344 320.21875 278.652344 320.21875 C 278.019531 320.300781 277.464844 320.539062 276.914062 320.851562 C 276.519531 321.089844 276.125 321.40625 275.726562 321.726562 L 275.410156 321.40625 C 275.332031 321.011719 275.410156 320.617188 275.488281 320.144531 Z M 271.933594 326.867188 C 274.222656 335.488281 277.941406 341.34375 281.578125 340.867188 C 282.921875 340.785156 284.1875 340.234375 285.136719 339.203125 C 286.480469 337.703125 285.6875 336.4375 286.796875 334.621094 C 288.378906 332.164062 290.828125 332.957031 292.726562 330.503906 C 294.070312 328.765625 294.46875 326.472656 293.757812 324.335938 C 292.886719 322.121094 290.59375 321.566406 288.222656 321.089844 C 283.476562 320.0625 278.96875 321.644531 276.914062 322.433594 C 275.964844 322.832031 275.015625 323.226562 274.066406 323.703125 Z M 273.511719 322.988281 C 273.671875 321.960938 273.75 321.011719 273.828125 319.984375 C 273.910156 317.769531 274.066406 313.101562 271.535156 308.988281 C 270.269531 306.933594 269.082031 304.957031 266.632812 304.792969 C 264.417969 304.792969 262.285156 305.902344 261.019531 307.722656 C 259.199219 310.253906 260.78125 312.308594 258.964844 314.605469 C 257.542969 316.265625 256.035156 315.949219 255.011719 317.613281 C 254.378906 318.796875 254.222656 320.144531 254.535156 321.488281 C 255.328125 324.964844 262.046875 326.628906 271.140625 326.074219 Z M 266.710938 333.273438 C 265.84375 335.882812 265.367188 338.652344 265.210938 341.421875 C 265.128906 343.875 264.972656 346.246094 266.316406 346.878906 C 267.1875 347.277344 268.53125 346.878906 269.402344 346.402344 C 270.269531 345.929688 270.507812 345.296875 271.695312 344.664062 C 272.328125 344.347656 272.960938 344.113281 273.671875 343.875 C 274.9375 343.320312 275.964844 342.367188 276.757812 341.261719 C 278.175781 339.128906 277.152344 336.359375 276.125 333.511719 C 275.175781 330.980469 273.828125 328.605469 272.167969 326.472656 Z M 271.222656 326.074219 C 268.769531 324.890625 266.160156 324.097656 263.546875 323.78125 C 260.464844 323.382812 257.617188 323.070312 255.800781 324.890625 C 254.851562 325.917969 254.222656 327.105469 253.902344 328.449219 C 253.824219 329.160156 253.746094 329.871094 253.585938 330.503906 C 253.191406 331.851562 252.714844 332.085938 252.402344 333.113281 C 252.082031 334.144531 252.007812 335.410156 252.640625 336.203125 C 252.875 336.515625 253.664062 337.386719 258.175781 336.121094 C 260.941406 335.328125 263.628906 334.222656 266.160156 332.800781 L 271.222656 326.074219 " fill-opacity="1" fill-rule="nonzero"/><path fill="#fab90a" d="M 40.566406 108.304688 C 39.699219 107.433594 47.605469 97.074219 53.296875 93.671875 C 53.929688 93.355469 54.402344 92.878906 54.878906 92.402344 C 57.644531 89.082031 55.75 83.308594 55.90625 83.230469 C 56.222656 84.097656 56.378906 84.890625 56.460938 85.839844 C 56.699219 87.027344 56.773438 88.214844 56.699219 89.398438 C 56.699219 90.269531 56.539062 91.058594 56.378906 91.929688 L 56.617188 92.007812 C 57.011719 91.21875 57.566406 90.109375 58.355469 88.84375 C 58.59375 88.527344 58.832031 88.054688 59.226562 87.582031 C 59.9375 86.472656 60.808594 85.445312 61.757812 84.492188 C 60.730469 85.761719 59.859375 87.027344 59.070312 88.371094 C 58.515625 89.320312 57.960938 90.347656 57.644531 91.457031 C 57.332031 92.402344 57.25 92.878906 56.773438 93.828125 C 56.460938 94.542969 56.066406 95.253906 55.589844 95.964844 C 53.21875 99.683594 47.761719 103.714844 47.761719 103.714844 C 43.726562 106.722656 40.960938 108.78125 40.566406 108.304688 Z M 42.78125 105.535156 C 41.042969 105.851562 38.273438 106.328125 34.871094 106.722656 C 24.4375 107.75 15.738281 108.621094 10.359375 103.476562 C 9.492188 102.609375 6.488281 99.761719 6.644531 96.042969 C 6.960938 89.875 16.132812 89.476562 17.238281 82.753906 C 17.871094 78.722656 15.027344 76.425781 14.867188 67.25 C 14.789062 66.378906 14.867188 65.429688 15.105469 64.558594 C 16.449219 59.65625 22.933594 56.648438 27.835938 56.410156 C 34.636719 56.097656 39.617188 61.082031 43.019531 64.484375 C 52.425781 73.894531 54.878906 85.839844 55.667969 92.402344 C 51.402344 96.835938 47.128906 101.183594 42.78125 105.535156 Z M 313.601562 300.523438 C 328.546875 295.144531 340.328125 300.761719 340.328125 300.761719 C 343.808594 302.265625 348.789062 304.398438 350.6875 309.621094 C 352.585938 314.84375 350.847656 321.800781 346.65625 324.890625 C 342.148438 328.210938 337.875 324.808594 334.082031 328.210938 C 330.289062 331.613281 332.976562 336.675781 329.101562 339.917969 C 325.621094 342.925781 318.898438 342.6875 314.789062 339.761719 C 310.203125 336.515625 312.96875 332.800781 307.117188 323.464844 C 304.507812 319.351562 301.980469 316.898438 302.691406 313.65625 C 303.164062 311.679688 304.269531 309.9375 305.851562 308.75 C 307.355469 307.644531 308.222656 307.960938 309.175781 306.695312 C 310.363281 305.191406 309.648438 303.925781 310.757812 302.34375 C 311.46875 301.472656 312.496094 300.839844 313.601562 300.523438 Z M 318.425781 296.015625 C 319.53125 295.777344 320.5625 295.300781 321.433594 294.511719 C 322.378906 293.5625 323.089844 292.375 323.410156 291.03125 C 323.25 292.375 322.617188 293.644531 321.667969 294.59375 C 320.800781 295.464844 319.769531 296.09375 318.503906 296.410156 C 318.425781 296.648438 318.347656 296.882812 318.269531 297.121094 C 317.554688 298.464844 316.371094 299.417969 314.945312 299.972656 C 313.128906 300.761719 311.152344 303.449219 307.277344 308.832031 C 302.453125 315.554688 301.503906 318.636719 300.875 318.402344 C 299.765625 318.007812 300.636719 308.832031 305.300781 304.242188 C 306.960938 302.582031 308.542969 300.839844 310.28125 299.339844 C 311.230469 298.628906 312.101562 297.757812 312.734375 296.726562 C 313.445312 295.539062 313.363281 294.90625 313.996094 294.511719 C 314.628906 294.117188 315.660156 293.957031 317.792969 295.066406 C 318.980469 294.75 319.929688 294.039062 320.640625 293.089844 C 321.507812 291.664062 321.828125 290.003906 321.507812 288.421875 C 321.90625 290.160156 321.589844 291.980469 320.640625 293.484375 C 320.007812 294.433594 319.136719 295.144531 318.109375 295.621094 L 318.425781 296.015625 " fill-opacity="1" fill-rule="nonzero"/><g clip-path="url(#db51812088)"><path fill="#f2cdd1" d="M 16.054688 178.46875 C 15.34375 180.367188 16.449219 181.554688 15.65625 182.347656 C 14.710938 183.292969 12.890625 181.632812 10.046875 181.871094 C 7.59375 182.109375 4.667969 183.765625 3.957031 186.140625 C 3.167969 188.675781 5.457031 190.175781 4.429688 192.234375 C 3.5625 193.972656 1.664062 193.339844 0.632812 195.078125 C -0.550781 196.980469 1.425781 198.480469 1.503906 202.914062 C 1.585938 206.550781 0.320312 207.421875 1.265625 209.242188 C 2.214844 211.058594 4.585938 212.167969 6.488281 212.40625 C 9.492188 212.800781 11.074219 210.980469 12.335938 211.929688 C 13.523438 212.800781 12.496094 214.382812 13.917969 216.4375 C 14.710938 217.703125 15.894531 218.574219 17.320312 218.890625 C 20.007812 219.363281 21.351562 216.519531 23.644531 217.070312 C 25.382812 217.546875 25.226562 219.445312 27.285156 219.996094 C 29.023438 220.550781 31.078125 219.683594 32.261719 218.652344 C 34.796875 216.519531 33.609375 213.90625 35.664062 212.800781 C 37.722656 211.691406 39.378906 213.90625 42.386719 212.800781 C 43.808594 212.246094 45.628906 210.980469 46.023438 209.160156 C 46.496094 206.789062 44.125 205.996094 44.203125 203.542969 C 44.363281 200.222656 48.949219 199.90625 50.292969 195.398438 C 50.925781 193.421875 50.925781 190.414062 49.425781 188.4375 C 47.605469 186.0625 44.914062 186.457031 44.285156 184.402344 C 43.652344 182.421875 45.785156 181.078125 44.914062 179.417969 C 44.046875 177.757812 42.148438 178.625 40.171875 176.730469 C 38.589844 175.148438 39.300781 174.039062 38.117188 173.328125 C 35.742188 171.902344 32.660156 176.492188 28.867188 175.621094 C 26.097656 174.910156 25.621094 171.984375 23.488281 172.21875 C 22.695312 172.296875 22.617188 172.773438 20.085938 174.910156 C 17.160156 177.28125 16.527344 177.363281 16.054688 178.46875 Z M 340.25 165.496094 C 339.539062 167.394531 340.644531 168.582031 339.851562 169.371094 C 338.90625 170.320312 337.085938 168.660156 334.242188 168.898438 C 331.789062 169.132812 328.863281 170.796875 328.152344 173.167969 C 327.363281 175.699219 329.652344 177.203125 328.625 179.257812 C 327.757812 181 325.859375 180.289062 324.828125 182.027344 C 323.644531 183.929688 325.621094 185.429688 325.699219 189.859375 C 325.78125 193.496094 324.515625 194.371094 325.460938 196.1875 C 326.410156 198.007812 328.785156 199.117188 330.601562 199.351562 C 333.609375 199.75 335.1875 197.929688 336.457031 198.878906 C 337.640625 199.75 336.613281 201.332031 338.039062 203.386719 C 338.828125 204.652344 340.015625 205.519531 341.433594 205.839844 C 344.125 206.3125 345.46875 203.464844 347.761719 204.019531 C 349.503906 204.496094 349.34375 206.390625 351.320312 206.945312 C 353.0625 207.5 355.113281 206.628906 356.300781 205.601562 C 358.832031 203.542969 357.644531 200.933594 359.703125 199.75 C 361.757812 198.5625 363.417969 200.855469 366.421875 199.75 C 367.925781 199.191406 369.664062 197.929688 370.0625 196.109375 C 370.535156 193.734375 368.160156 192.945312 368.242188 190.492188 C 368.398438 187.167969 372.988281 186.855469 374.328125 182.347656 C 374.964844 180.367188 374.964844 177.363281 373.457031 175.382812 C 371.644531 173.011719 368.953125 173.40625 368.320312 171.347656 C 367.6875 169.371094 369.824219 168.027344 369.03125 166.363281 C 368.242188 164.707031 366.265625 165.574219 364.289062 163.675781 C 362.707031 162.09375 363.417969 160.988281 362.230469 160.273438 C 359.859375 158.851562 356.777344 163.4375 352.980469 162.570312 C 350.214844 161.855469 349.738281 158.929688 347.601562 159.167969 C 346.8125 159.246094 346.8125 159.722656 344.203125 161.855469 C 341.359375 164.308594 340.722656 164.308594 340.25 165.496094 Z M 181.871094 7.527344 C 180.523438 7.054688 179.179688 6.816406 177.753906 6.816406 C 172.0625 6.972656 168.265625 11.957031 162.890625 19.074219 C 155.851562 28.492188 145.730469 42.015625 146.917969 42.964844 C 147.394531 43.359375 149.84375 41.226562 150.953125 42.097656 C 151.347656 42.410156 151.1875 42.886719 151.660156 43.441406 C 152.296875 44.074219 153.167969 44.46875 154.035156 44.46875 C 157.039062 44.785156 157.988281 42.730469 159.730469 43.28125 C 161.941406 43.992188 161.546875 47.476562 163.601562 48.027344 C 165.578125 48.582031 166.847656 45.734375 169.058594 46.207031 C 171.273438 46.683594 171.589844 49.847656 173.011719 49.6875 C 174.433594 49.53125 174.832031 46.289062 176.015625 46.289062 C 177.203125 46.289062 177.679688 50.480469 179.335938 50.558594 C 180.207031 50.640625 180.367188 49.453125 182.105469 48.898438 C 183.527344 48.425781 184.082031 49.058594 184.871094 48.5 C 186.453125 47.476562 185.742188 44.230469 186.535156 44.074219 C 187.324219 43.917969 188.195312 46.84375 188.984375 46.683594 C 189.777344 46.523438 189.695312 43.28125 190.488281 43.203125 C 191.277344 43.125 192.148438 46.761719 193.097656 46.683594 C 194.359375 46.605469 194.757812 41.460938 195.863281 41.382812 C 196.8125 41.382812 197.128906 44.863281 198.550781 44.941406 C 199.265625 45.023438 199.421875 44.152344 200.925781 43.28125 C 202.585938 42.335938 203.375 42.886719 204.011719 42.097656 C 205.273438 40.671875 203.847656 37.746094 204.40625 37.507812 C 204.957031 37.269531 206.300781 40.433594 207.644531 40.195312 C 208.515625 40.039062 208.515625 38.773438 209.464844 38.378906 C 211.125 37.746094 213.339844 41.148438 213.894531 40.753906 C 214.523438 40.355469 212.230469 34.027344 207.171875 27.539062 C 205.355469 25.167969 203.375 22.953125 201.242188 20.894531 C 195.546875 15.203125 190.09375 9.820312 181.871094 7.527344 Z M 162.179688 345.375 C 159.808594 343.398438 157.515625 341.261719 155.300781 339.046875 C 149.371094 332.71875 146.289062 326.390625 146.917969 325.917969 C 147.394531 325.523438 150.003906 328.765625 151.742188 327.972656 C 152.691406 327.5 152.613281 326.152344 153.480469 325.917969 C 154.90625 325.523438 156.566406 328.6875 157.121094 328.367188 C 157.671875 328.054688 155.851562 325.125 157.039062 323.542969 C 157.671875 322.671875 158.542969 323.148438 160.203125 321.960938 C 161.707031 320.933594 161.785156 319.984375 162.574219 319.984375 C 164.078125 319.984375 164.789062 323.542969 165.738281 323.464844 C 166.921875 323.308594 166.847656 317.847656 168.109375 317.6875 C 169.136719 317.53125 170.40625 321.25 171.195312 321.011719 C 171.984375 320.777344 171.511719 317.453125 172.382812 317.214844 C 173.25 316.980469 174.515625 319.984375 175.226562 319.667969 C 175.9375 319.351562 174.910156 316.03125 176.492188 314.84375 C 177.28125 314.210938 177.835938 314.84375 179.335938 314.210938 C 181.078125 313.417969 181.15625 312.234375 182.105469 312.234375 C 183.847656 312.234375 184.636719 316.503906 185.980469 316.34375 C 187.324219 316.1875 187.246094 312.785156 188.75 312.546875 C 190.25 312.308594 190.882812 315.554688 193.175781 315.792969 C 195.46875 316.03125 196.574219 313.023438 198.710938 313.339844 C 200.925781 313.734375 200.925781 317.453125 203.296875 317.925781 C 205.117188 318.324219 205.988281 316.105469 209.148438 316.105469 C 210.097656 316.03125 211.046875 316.34375 211.757812 316.980469 C 212.3125 317.53125 212.230469 318.007812 212.628906 318.324219 C 213.8125 319.113281 216.105469 316.660156 216.738281 316.980469 C 218.082031 317.847656 208.910156 333.035156 202.429688 343.554688 C 197.605469 351.464844 194.046875 357.082031 188.195312 357.792969 C 186.773438 357.953125 185.265625 357.792969 183.847656 357.480469 C 175.070312 356.054688 168.898438 351.070312 162.179688 345.375 " fill-opacity="1" fill-rule="nonzero"/></g><path fill="#f25728" d="M 174.121094 19.628906 C 173.566406 23.585938 172.539062 27.382812 170.957031 31.023438 C 170.71875 31.496094 171.429688 31.890625 171.667969 31.417969 C 173.328125 27.621094 174.433594 23.664062 174.910156 19.628906 C 174.910156 19.074219 174.121094 19.15625 174.121094 19.628906 " fill-opacity="1" fill-rule="nonzero"/><path fill="#f25728" d="M 178.46875 19 C 178.230469 22.003906 179.179688 24.851562 179.179688 27.859375 C 179.179688 28.726562 178.785156 30.785156 179.65625 31.335938 C 179.8125 31.417969 179.96875 31.417969 180.050781 31.335938 C 180.289062 31.179688 180.445312 31.023438 180.523438 30.785156 C 180.761719 30.308594 180.050781 29.914062 179.8125 30.386719 C 179.574219 30.863281 179.96875 30.785156 180.050781 30.386719 C 180.050781 30.074219 180.050781 29.675781 179.96875 29.359375 C 179.96875 28.570312 179.96875 27.699219 179.96875 26.910156 C 179.8125 24.296875 179.023438 21.765625 179.261719 19.074219 C 179.335938 18.441406 178.546875 18.441406 178.46875 19 " fill-opacity="1" fill-rule="nonzero"/><path fill="#f25728" d="M 183.609375 17.179688 C 184.242188 21.53125 185.902344 25.722656 188.429688 29.28125 C 188.75 29.675781 189.382812 29.28125 189.144531 28.886719 C 186.691406 25.328125 185.03125 21.210938 184.398438 16.941406 C 184.320312 16.386719 183.527344 16.625 183.609375 17.179688 " fill-opacity="1" fill-rule="nonzero"/><path fill="#f25728" d="M 183.847656 349.882812 C 181.871094 346.957031 179.496094 344.269531 176.730469 341.972656 C 176.335938 341.65625 175.777344 342.210938 176.175781 342.53125 C 178.863281 344.742188 181.238281 347.351562 183.214844 350.277344 C 183.527344 350.675781 184.160156 350.277344 183.847656 349.882812 " fill-opacity="1" fill-rule="nonzero"/><path fill="#f25728" d="M 184.242188 339.996094 L 186.613281 349.09375 C 186.691406 349.332031 186.929688 349.410156 187.085938 349.410156 C 187.246094 349.410156 187.40625 349.09375 187.40625 348.933594 L 185.03125 339.839844 C 184.953125 339.601562 184.714844 339.523438 184.558594 339.523438 C 184.320312 339.523438 184.160156 339.761719 184.242188 339.996094 " fill-opacity="1" fill-rule="nonzero"/><path fill="#f25728" d="M 190.882812 338.574219 L 190.171875 349.488281 C 190.171875 349.964844 190.964844 349.964844 190.964844 349.488281 L 191.671875 338.574219 C 191.671875 338.097656 190.882812 338.097656 190.882812 338.574219 " fill-opacity="1" fill-rule="nonzero"/><path fill="#f25728" d="M 348.234375 178.863281 C 347.363281 179.496094 347.207031 180.765625 347.921875 181.632812 C 348.15625 181.949219 348.472656 182.183594 348.871094 182.265625 C 350.609375 182.742188 351.554688 180.527344 350.921875 179.183594 C 350.054688 177.363281 347.445312 177.914062 346.574219 179.417969 C 345.707031 180.921875 346.65625 183.453125 348.632812 183.214844 C 350.054688 183.058594 351.085938 181.710938 350.847656 180.289062 C 350.765625 179.894531 350.6875 179.496094 350.449219 179.183594 C 349.421875 177.757812 346.574219 177.28125 345.707031 179.101562 C 344.679688 181 345.46875 183.371094 347.363281 184.324219 C 347.445312 184.402344 347.527344 184.402344 347.683594 184.480469 C 348.472656 184.796875 349.898438 185.035156 350.609375 184.480469 C 351.320312 183.929688 351.554688 181.949219 351.480469 181 C 351.320312 178.945312 349.503906 175.460938 346.96875 177.042969 C 344.125 178.863281 346.179688 182.265625 347.683594 184.164062 C 347.839844 184.324219 348.078125 184.324219 348.234375 184.164062 L 348.316406 184.085938 C 349.503906 182.421875 349.421875 180.128906 348.15625 178.546875 C 348 178.3125 347.683594 178.46875 347.527344 178.625 C 346.574219 179.894531 345.707031 182.503906 348.078125 182.820312 C 348.550781 182.898438 348.550781 182.109375 348.078125 182.027344 C 346.417969 181.789062 347.683594 179.734375 348.234375 179.019531 L 347.601562 179.101562 C 348.632812 180.445312 348.710938 182.347656 347.683594 183.691406 L 348.316406 183.609375 C 347.363281 182.421875 346.023438 180.839844 346.496094 179.183594 C 346.8125 178.074219 347.761719 177.28125 348.871094 177.757812 C 349.738281 178.152344 350.371094 178.945312 350.609375 179.894531 C 350.921875 181 351.085938 183.691406 349.660156 184.003906 C 348 184.242188 346.417969 183.058594 346.179688 181.394531 C 346.179688 181.316406 346.179688 181.238281 346.179688 181.160156 C 346.101562 179.496094 347.363281 178.46875 348.945312 179.019531 C 350.847656 179.734375 350.527344 182.742188 348.394531 182.503906 C 345.550781 182.109375 348.15625 177.519531 350.132812 179.339844 C 350.6875 179.8125 350.6875 180.683594 350.132812 181.160156 C 349.976562 181.316406 349.816406 181.394531 349.578125 181.476562 C 349.027344 181.554688 348.789062 181.476562 348.550781 181 C 348.234375 180.601562 348.394531 180.050781 348.789062 179.734375 C 349.105469 179.339844 348.632812 178.625 348.234375 178.863281 " fill-opacity="1" fill-rule="nonzero"/><path fill="#f25728" d="M 24.199219 194.605469 C 23.011719 195.160156 22.460938 196.585938 23.011719 197.769531 C 23.09375 197.847656 23.09375 198.007812 23.167969 198.085938 C 23.25 198.242188 23.40625 198.324219 23.644531 198.242188 C 25.621094 197.847656 26.726562 195.078125 25.070312 193.65625 C 23.566406 192.390625 20.878906 193.023438 20.640625 195.078125 C 20.402344 196.660156 21.511719 198.167969 23.167969 198.402344 C 23.566406 198.480469 24.039062 198.402344 24.4375 198.324219 C 26.175781 197.691406 27.046875 195.714844 26.414062 193.972656 C 26.253906 193.65625 26.097656 193.339844 25.9375 193.101562 C 24.59375 191.441406 22.144531 191.203125 20.484375 192.550781 C 20.246094 192.789062 20.007812 193.023438 19.773438 193.339844 C 18.503906 194.921875 18.742188 197.214844 20.324219 198.402344 C 20.5625 198.5625 20.796875 198.71875 21.035156 198.878906 C 22.855469 199.75 25.226562 199.117188 25.859375 197.058594 C 26.414062 195.238281 25.464844 192.863281 23.488281 192.550781 C 21.117188 192.152344 18.585938 195.160156 20.167969 197.296875 C 21.75 199.429688 23.726562 196.425781 22.933594 194.605469 C 22.855469 194.445312 22.695312 194.371094 22.460938 194.445312 C 21.511719 194.765625 20.957031 195.792969 21.273438 196.742188 C 21.351562 196.980469 21.511719 197.214844 21.75 197.453125 C 22.144531 197.847656 22.617188 197.296875 22.300781 196.898438 C 21.90625 196.503906 21.90625 195.792969 22.300781 195.398438 C 22.378906 195.316406 22.539062 195.238281 22.695312 195.160156 L 22.222656 195.003906 C 22.460938 195.476562 22.460938 196.109375 22.144531 196.585938 C 21.589844 197.296875 20.484375 196.660156 20.484375 195.792969 C 20.484375 194.84375 21.035156 193.972656 21.90625 193.496094 C 23.726562 192.46875 25.382812 194.132812 25.226562 195.953125 C 24.988281 200.144531 17.953125 198.085938 20.167969 194.050781 C 20.957031 192.550781 22.773438 191.914062 24.277344 192.707031 C 24.515625 192.789062 24.675781 192.945312 24.910156 193.101562 C 25.78125 193.734375 26.097656 194.84375 25.78125 195.871094 C 25.464844 196.980469 24.355469 197.769531 23.167969 197.609375 C 21.117188 197.214844 20.796875 193.816406 23.167969 193.734375 C 25.542969 193.65625 25.703125 196.980469 23.488281 197.453125 L 23.960938 197.609375 C 23.488281 196.898438 23.644531 195.871094 24.355469 195.398438 C 24.4375 195.316406 24.59375 195.238281 24.675781 195.238281 C 25.070312 195.078125 24.675781 194.371094 24.199219 194.605469 " fill-opacity="1" fill-rule="nonzero"/><path fill="#f25728" d="M 22.222656 193.894531 C 21.90625 195.238281 22.0625 196.660156 22.695312 197.929688 C 22.855469 198.085938 23.09375 198.167969 23.25 198.085938 C 23.332031 198.085938 23.332031 198.007812 23.40625 197.929688 C 24.039062 196.980469 23.804688 195.632812 22.855469 195.003906 C 22.539062 194.84375 22.222656 194.683594 21.90625 194.605469 C 20.324219 194.445312 19.453125 196.027344 20.71875 197.136719 C 23.804688 199.75 25.859375 192.074219 21.90625 192.707031 C 20.796875 192.945312 20.085938 194.050781 20.324219 195.238281 C 20.402344 195.554688 20.5625 195.871094 20.71875 196.109375 C 21.589844 197.296875 23.25 197.535156 24.4375 196.585938 L 24.515625 196.503906 C 25.542969 195.554688 25.621094 193.972656 24.675781 192.945312 C 24.59375 192.863281 24.4375 192.789062 24.355469 192.628906 C 23.25 191.839844 21.824219 192.152344 21.035156 193.183594 C 20.878906 193.339844 20.796875 193.578125 20.71875 193.816406 C 20.167969 195.316406 21.589844 197.214844 23.011719 197.769531 C 24.59375 198.402344 24.910156 196.1875 24.4375 195.160156 C 23.882812 193.894531 22.222656 193.101562 21.035156 194.050781 C 20.085938 194.921875 19.929688 196.347656 20.796875 197.375 C 21.824219 198.480469 23.566406 197.691406 24.121094 196.503906 C 24.75 195.003906 23.40625 193.496094 21.90625 193.421875 C 20.324219 193.496094 19.140625 194.765625 19.140625 196.347656 C 19.140625 196.425781 19.140625 196.503906 19.140625 196.585938 C 19.214844 197.691406 20.167969 198.5625 21.273438 198.480469 C 21.75 198.480469 22.222656 198.242188 22.539062 197.929688 C 23.960938 196.660156 23.726562 194.050781 22.300781 192.863281 C 21.589844 192.234375 20.484375 192.234375 19.847656 192.945312 C 19.453125 193.421875 19.296875 194.050781 19.453125 194.605469 C 19.773438 196.109375 22.144531 198.324219 23.804688 197.691406 C 25.703125 196.898438 23.960938 194.683594 22.695312 194.445312 C 22.222656 194.371094 21.984375 195.078125 22.460938 195.238281 C 22.855469 195.316406 23.167969 195.476562 23.488281 195.792969 C 23.804688 196.1875 23.726562 196.109375 23.40625 196.585938 C 23.09375 197.058594 23.09375 197.058594 22.617188 196.898438 C 21.90625 196.585938 21.273438 196.027344 20.796875 195.398438 C 20.246094 194.683594 20.167969 192.789062 21.589844 193.339844 C 22.378906 193.816406 22.855469 194.605469 22.855469 195.554688 C 22.855469 196.503906 22.460938 197.691406 21.351562 197.769531 C 19.847656 197.847656 19.773438 196.027344 20.402344 195.078125 C 21.824219 193.023438 24.832031 195.632812 22.855469 196.898438 C 21.273438 197.929688 20.484375 195.398438 21.75 194.605469 C 22.539062 194.132812 23.488281 194.84375 23.804688 195.554688 C 23.960938 195.871094 24.121094 196.425781 23.882812 196.742188 C 23.566406 197.214844 22.855469 196.660156 22.539062 196.347656 C 21.90625 195.714844 21.273438 194.921875 21.667969 193.972656 C 21.984375 193.183594 22.933594 192.789062 23.726562 193.101562 C 23.804688 193.101562 23.882812 193.183594 23.960938 193.261719 C 24.75 193.816406 24.910156 194.84375 24.355469 195.632812 C 23.960938 196.1875 23.40625 196.425781 22.773438 196.347656 C 21.667969 196.265625 20.640625 194.765625 21.589844 193.816406 C 21.984375 193.421875 22.695312 193.421875 23.09375 193.816406 C 23.167969 193.894531 23.25 194.050781 23.332031 194.210938 C 23.488281 194.683594 23.488281 195.160156 23.332031 195.554688 C 23.25 196.027344 22.933594 196.425781 22.539062 196.660156 C 21.90625 197.058594 21.035156 196.660156 21.117188 195.953125 C 21.191406 195.554688 21.273438 195.476562 21.75 195.398438 C 22.0625 195.398438 22.460938 195.476562 22.695312 195.714844 C 23.167969 196.1875 23.167969 196.898438 22.773438 197.453125 L 23.488281 197.453125 C 22.933594 196.425781 22.773438 195.238281 23.09375 194.050781 C 23.167969 193.65625 22.378906 193.421875 22.222656 193.894531 " fill-opacity="1" fill-rule="nonzero"/><path fill="#f25728" d="M 348.472656 177.914062 L 347.289062 177.996094 C 347.050781 177.996094 346.894531 178.152344 346.894531 178.390625 C 346.65625 180.527344 347.921875 182.503906 349.898438 183.292969 C 350.132812 183.371094 350.292969 183.214844 350.371094 183.058594 C 350.6875 181.160156 350.132812 178.546875 348.316406 177.519531 C 346.496094 176.492188 346.023438 179.101562 345.945312 180.289062 C 345.863281 181.871094 346.8125 184.402344 348.871094 183.53125 C 350.371094 182.898438 350.609375 180.601562 350.449219 179.257812 C 350.371094 178.074219 349.421875 177.203125 348.234375 177.203125 C 347.921875 177.203125 347.527344 177.363281 347.207031 177.519531 C 345.550781 178.390625 345.3125 180.921875 345.945312 182.503906 C 346.574219 184.085938 348.15625 185.191406 349.660156 184.003906 C 351.160156 182.820312 350.921875 180.601562 349.660156 179.339844 C 349.105469 178.785156 347.839844 177.757812 346.96875 178.074219 C 346.101562 178.390625 345.945312 179.417969 345.785156 180.128906 C 345.46875 181.949219 346.101562 184.003906 348 184.558594 C 348.234375 184.640625 348.394531 184.480469 348.472656 184.242188 C 349.183594 182.503906 348.789062 180.527344 347.363281 179.339844 C 347.207031 179.183594 346.96875 179.183594 346.8125 179.339844 C 346.8125 179.339844 346.8125 179.417969 346.734375 179.417969 C 346.257812 180.367188 346.257812 181.476562 346.8125 182.347656 C 347.207031 183.058594 348.15625 184.003906 349.027344 183.53125 C 349.898438 183.058594 349.660156 181.632812 349.578125 180.921875 C 349.578125 179.894531 349.027344 178.945312 348.078125 178.46875 C 347.921875 178.390625 347.601562 178.390625 347.527344 178.625 L 347.527344 178.707031 C 347.128906 180.050781 347.050781 181.394531 347.363281 182.820312 C 347.363281 183.058594 347.527344 183.214844 347.761719 183.214844 C 348 183.214844 348.15625 183.058594 348.15625 182.820312 C 348.472656 181.632812 347.683594 180.445312 346.496094 180.128906 C 346.257812 180.050781 346.023438 180.207031 346.023438 180.445312 C 346.023438 180.527344 346.023438 180.601562 346.023438 180.683594 C 346.417969 181.710938 347.445312 184.480469 348.945312 183.691406 C 350.449219 182.898438 349.578125 180.289062 348.945312 179.257812 C 348.871094 179.101562 348.632812 179.019531 348.394531 179.101562 C 348.234375 179.183594 348.234375 179.339844 348.234375 179.417969 C 348.15625 180.683594 348.472656 181.871094 348.945312 183.058594 C 349.105469 183.371094 349.578125 183.292969 349.660156 182.976562 C 350.132812 181.710938 349.738281 180.289062 348.710938 179.417969 C 348.550781 179.257812 348.316406 179.257812 348.15625 179.417969 C 348.15625 179.417969 348.15625 179.496094 348.078125 179.496094 C 347.527344 180.367188 347.601562 181.554688 348.234375 182.347656 C 348.316406 182.503906 348.550781 182.582031 348.789062 182.503906 C 348.871094 182.503906 348.871094 182.421875 348.945312 182.347656 C 349.265625 181.789062 349.34375 181.238281 349.265625 180.601562 C 349.265625 180.128906 348.472656 180.128906 348.472656 180.601562 C 348.550781 181.078125 348.472656 181.554688 348.234375 181.949219 L 348.945312 181.949219 C 348.472656 181.316406 348.394531 180.527344 348.789062 179.894531 L 348.15625 179.972656 C 348.945312 180.601562 349.265625 181.710938 348.945312 182.742188 L 349.660156 182.660156 C 349.183594 181.632812 348.945312 180.601562 349.027344 179.496094 L 348.316406 179.734375 C 348.632812 180.128906 348.789062 180.601562 348.945312 181.078125 C 349.105469 181.789062 349.183594 182.109375 348.550781 182.503906 C 348.234375 182.976562 348 182.976562 347.839844 182.582031 C 347.683594 182.421875 347.601562 182.183594 347.445312 181.949219 C 347.207031 181.554688 347.050781 181.078125 346.894531 180.601562 L 346.417969 181.078125 C 347.207031 181.238281 347.683594 182.027344 347.527344 182.820312 L 348.316406 182.820312 C 348.078125 181.632812 348.15625 180.367188 348.472656 179.183594 L 347.921875 179.417969 C 349.027344 179.894531 349.105469 181.238281 349.027344 182.347656 C 348.945312 183.453125 348.078125 182.820312 347.683594 182.183594 C 347.289062 181.554688 347.289062 180.683594 347.601562 180.050781 L 346.96875 180.128906 C 348.15625 181.160156 348.472656 182.898438 347.839844 184.324219 L 348.316406 184.003906 C 347.128906 183.609375 346.65625 182.421875 346.574219 181.238281 C 346.496094 180.683594 346.65625 180.128906 346.894531 179.578125 C 347.445312 178.707031 348.632812 179.65625 349.183594 180.207031 C 349.898438 180.839844 350.132812 181.789062 349.898438 182.742188 C 349.660156 183.609375 348.789062 184.164062 347.921875 183.929688 C 347.761719 183.929688 347.683594 183.847656 347.527344 183.765625 C 346.257812 182.976562 346.179688 180.683594 346.734375 179.578125 C 347.050781 178.707031 347.921875 178.230469 348.789062 178.390625 C 349.660156 178.625 349.738281 179.8125 349.738281 180.601562 C 349.660156 181.789062 348.632812 184.640625 347.128906 182.421875 C 346.574219 181.554688 346.574219 177.675781 348.316406 178.863281 C 349.578125 179.734375 349.898438 181.871094 349.660156 183.214844 L 350.132812 182.898438 C 348.550781 182.183594 347.527344 180.527344 347.761719 178.785156 L 347.363281 179.183594 L 348.550781 179.101562 C 349.027344 179.101562 349.027344 178.3125 348.550781 178.3125 L 348.472656 177.914062 " fill-opacity="1" fill-rule="nonzero"/></svg>